<svg width="866" height="1117" viewBox="0 0 866 1117" fill="none" xmlns="http://www.w3.org/2000/svg">
<g clip-path="url(#clip0_666_116)">
<g clip-path="url(#clip1_666_116)">
<path d="M485.09 1475.62L733.751 1506.44L734.041 1666.22L775.454 1666.15L775.178 1511.57L922.459 1529.82L927.898 1491.43L775.109 1472.49L774.93 1372.47L924.806 1374.99L925.551 1336.26L326.807 1326.23L302 1199.53L600.675 1099.18L928.588 1232.57L945.112 1197.05L620.995 1065.21L616.978 1045.17L938.928 1014.67L934.759 976.141L609.331 1006.96L601.78 969.209L977.028 703.052L543.317 518.803L505.686 609.01L344.242 522.352L323.618 555.942L490.46 645.491L374.239 924.028L175.799 907.014L298.094 671.309L197.762 639.979L268.952 525.412L233.143 505.958L157.66 627.457L150.578 625.25L224.612 504.009L188.651 484.8L110.518 612.741L-12.6327 574.285L-25.747 611.024L240.239 694.093L131.708 903.257L-17.2986 890.478L-21.0812 929.05L210.794 948.929L254.899 1174.23L-26.2026 1268.67L-12.2048 1305.11L262.45 1212.84L284.524 1325.56L-18.831 1320.48L-19.5764 1359.2L305.286 1364.65L304.333 1414.18L-16.4842 1374.41L-21.9232 1412.8L236.677 1444.87L233.571 1598.65L-21.9508 1630.66L-16.4566 1669.04L485.048 1606.22V1475.65L485.09 1475.62ZM566.012 570.981L896.672 711.443L572.97 941.068L417.172 927.707L566.012 570.981ZM253.643 952.57L561.595 978.981L578.892 1065.36L294.435 1160.92L253.643 952.557V952.57ZM346.727 1365.31L733.502 1371.79L733.682 1467.37L345.692 1419.27L346.727 1365.31ZM278.022 1449.94L443.676 1470.48V1572.29L275.137 1593.41L278.022 1449.94Z" fill="#F7F1DA"/>
</g>
<g clip-path="url(#clip2_666_116)">
<path d="M485.09 286.388L733.751 317.214L734.041 476.989L775.454 476.924L775.178 322.339L922.459 340.593L927.898 302.201L775.109 283.264L774.93 183.245L924.806 185.762L925.551 147.036L326.807 137.005L302 10.3038L600.675 -90.0506L928.588 43.3378L945.112 7.82524L620.996 -124.014L616.978 -144.062L938.928 -174.553L934.759 -213.086L609.331 -182.272L601.78 -220.018L977.028 -486.175L567.863 -707.243L505.686 -580.217L344.242 -666.875L323.618 -633.286L490.46 -543.736L374.239 -265.2L175.799 -282.214L298.094 -517.918L197.762 -549.248L268.952 -663.816L233.143 -683.269L157.66 -561.77L150.578 -563.978L224.612 -685.219L188.651 -704.427L110.518 -576.486L-12.6327 -614.942L-25.747 -578.203L240.239 -495.134L131.708 -285.97L-17.2986 -298.75L-21.0811 -260.178L210.794 -240.298L254.899 -14.9978L-26.2026 79.4441L-12.2048 115.886L262.45 23.6129L284.524 136.334L-18.831 131.248L-19.5764 169.975L305.286 175.422L304.333 224.954L-16.4842 185.182L-21.9232 223.573L236.677 255.639L233.571 409.423L-21.9507 441.437L-16.4565 479.816L485.048 416.988V286.427L485.09 286.388ZM590.558 -655.065L896.672 -477.784L572.97 -248.16L417.172 -261.52L590.558 -655.065ZM253.643 -236.658L561.595 -210.246L578.892 -123.872L294.435 -28.307L253.643 -236.671V-236.658ZM346.727 176.081L733.502 182.561L733.682 278.139L345.692 230.04L346.727 176.081ZM278.022 260.712L443.676 281.25V383.063L275.137 404.182L278.022 260.712Z" fill="#F7F1DA"/>
<path d="M934.054 550.355L933.62 511.63L-35.9712 521.125L-35.5375 559.85L934.054 550.355Z" fill="#F7F1DA"/>
</g>
</g>
<defs>
<clipPath id="clip0_666_116">
<rect width="866" height="1117" fill="white"/>
</clipPath>
<clipPath id="clip1_666_116">
<rect width="1073.86" height="864" fill="white" transform="matrix(0 1 -1 0 864 540.045)"/>
</clipPath>
<clipPath id="clip2_666_116">
<rect width="1107" height="864" fill="white" transform="matrix(0 1 -1 0 864 -497)"/>
</clipPath>
</defs>
</svg>
